<?xml version="1.0" encoding="UTF-8" standalone="no"?>
<svg width="450px" height="500px" viewBox="0 0 450 500" version="1.1" xmlns="http://www.w3.org/2000/svg" xmlns:xlink="http://www.w3.org/1999/xlink" xmlns:sketch="http://www.bohemiancoding.com/sketch/ns">
    <!-- Generator: Sketch 3.5 (25232) - http://www.bohemiancoding.com/sketch -->
    <title>bag</title>
    <desc>Created with Sketch.</desc>
    <defs></defs>
    <g id="Page-1" stroke="none" stroke-width="1" fill="none" fill-rule="evenodd" sketch:type="MSPage">
        <g id="bag" sketch:type="MSLayerGroup">
            <path d="M0,470 C0,486.57 13.435,500 30,500 L420,500 C436.56,500 450,486.57 450,470 L450,375 L0,375 L0,470 L0,470 Z" id="Shape" fill="#C0392C" sketch:type="MSShapeGroup"></path>
            <path d="M345,0 L400,0 C405.52,0 410,4.48 410,10 L410,90 C410,95.525 405.52,100 400,100 L345,100 C339.48,100 335,95.525 335,90 L335,10 C335,4.48 339.48,0 345,0 L345,0 Z" id="Shape" fill="#C0392C" sketch:type="MSShapeGroup"></path>
            <path d="M50,0 L105,0 C110.52,0 115,4.48 115,10 L115,90 C115,95.525 110.52,100 105,100 L50,100 C44.48,100 40,95.525 40,90 L40,10 C40,4.48 44.48,0 50,0 L50,0 Z" id="Shape" fill="#C0392C" sketch:type="MSShapeGroup"></path>
            <path d="M60,100 L70,100 L70,0 L60,0 L60,100 L60,100 Z M85,0 L85,100 L95,100 L95,0 L85,0 L85,0 Z" id="Shape" fill="#AC3327" sketch:type="MSShapeGroup"></path>
            <path d="M355,100 L365,100 L365,0 L355,0 L355,100 L355,100 Z M380,0 L380,100 L390,100 L390,0 L380,0 L380,0 Z" id="Shape" fill="#AC3327" sketch:type="MSShapeGroup"></path>
            <path d="M255,25 L255,50 L280,50 L255,25 L255,25 Z M195,50 L195,25 L170,50 L195,50 L195,50 Z" id="Shape" fill="#E67E21" sketch:type="MSShapeGroup"></path>
            <path d="M224.69,20 C238.095,20 248.895,23.76 254.885,29.395 L255,27.5 C255,15.085 242.635,5 224.69,5 C206.75,5 195,15.085 195,27.5 L195.195,29.14 C201.05,23.645 211.495,20 224.69,20 L224.69,20 Z" id="Shape" fill="#D35400" sketch:type="MSShapeGroup"></path>
            <path d="M100,50 L350,50 C405.23,50 450,94.775 450,150 L450,375 L0,375 L0,150 C0,94.78 44.77,50 100,50 L100,50 Z" id="Shape" fill="#F39C12" sketch:type="MSShapeGroup"></path>
            <path d="M272.805,159.695 L230.315,117.195 C227.39,114.265 222.63,114.265 219.69,117.195 L177.2,159.695 C174.27,162.625 174.27,167.38 177.2,170.31 L219.69,212.8 C222.63,215.74 227.385,215.74 230.315,212.8 L272.805,170.31 C275.73,167.39 275.73,162.625 272.805,159.695 L272.805,159.695 Z M220,172.5 C220,176.64 216.64,180 212.5,180 C208.36,180 205,176.645 205,172.5 L205,157.5 C205,153.36 208.36,150 212.5,150 C216.64,150 220,153.36 220,157.5 L220,172.5 L220,172.5 Z M245,172.5 C245,176.64 241.64,180 237.5,180 C233.36,180 230,176.645 230,172.5 L230,157.5 C230,153.36 233.36,150 237.5,150 C241.64,150 245,153.36 245,157.5 L245,172.5 L245,172.5 Z" id="Shape" fill="#D35400" sketch:type="MSShapeGroup"></path>
            <path d="M380,290 C380,278.955 371.045,270 360,270 L90,270 C78.955,270 70,278.955 70,290 L70,320 L80,320 L80,410 C80,421.045 88.955,430 100,430 L350,430 C361.045,430 370,421.045 370,410 L370,320 L380,320 L380,290 L380,290 Z" id="Shape" fill="#E67E21" sketch:type="MSShapeGroup"></path>
            <path d="M370,330 L370,320 L80,320 L80,330 L121.56,330 L121.56,348.125 C121.56,353.65 126.04,358.125 131.56,358.125 C135.025,358.125 138.075,356.355 139.87,353.68 C138.425,354.49 136.78,355 135,355 C129.48,355 125,350.525 125,345 L125,330 L370,330 L370,330 Z" id="Shape" fill="#CF7120" sketch:type="MSShapeGroup"></path>
            <path d="M125,320 L125,345 C125,350.525 129.48,355 135,355 C140.52,355 145,350.525 145,345 L145,320 L125,320 L125,320 Z M135,350 C132.24,350 130,347.765 130,345 C130,342.245 132.24,340 135,340 C137.76,340 140,342.245 140,345 C140,347.765 137.76,350 135,350 L135,350 Z" id="Shape" fill="#EBEDEE" sketch:type="MSShapeGroup"></path>
            <path d="M350,50 L100,50 C44.77,50 0,94.78 0,150 L0,165 C0,109.775 44.77,65 100,65 L350,65 C405.23,65 450,109.775 450,165 L450,150 C450,94.78 405.23,50 350,50 L350,50 Z" id="Shape" fill="#F4A629" sketch:type="MSShapeGroup"></path>
            <rect id="Rectangle-path" fill="#D3D5D6" sketch:type="MSShapeGroup" x="125" y="320" width="20" height="10"></rect>
            <path d="M135,340 C132.815,340 131.01,341.425 130.33,343.38 L131.565,343.125 C134.325,343.125 136.565,345.37 136.565,348.125 C136.565,348.7 136.415,349.24 136.24,349.755 C138.38,349.19 140,347.325 140,345 C140,342.245 137.76,340 135,340 L135,340 Z" id="Shape" fill="#CF7120" sketch:type="MSShapeGroup"></path>
            <rect id="Rectangle-path" fill="#BA651C" sketch:type="MSShapeGroup" x="121.56" y="320" width="3.44" height="10"></rect>
            <path d="M420,485 L30,485 C13.435,485 0,471.57 0,455 L0,470 C0,486.57 13.435,500 30,500 L420,500 C436.56,500 450,486.57 450,470 L450,455 C450,471.57 436.56,485 420,485 L420,485 Z" id="Shape" fill="#AC3327" sketch:type="MSShapeGroup"></path>
            <path d="M350,430 L100,430 C88.955,430 80,421.045 80,410 L80,420 C80,431.045 88.955,440 100,440 L350,440 C361.045,440 370,431.045 370,420 L370,410 C370,421.045 361.045,430 350,430 L350,430 Z" id="Shape" fill="#AC3327" sketch:type="MSShapeGroup"></path>
        </g>
    </g>
</svg>