<?xml version="1.0" encoding="UTF-8" standalone="no"?>
<svg width="150px" height="157px" viewBox="0 0 150 157" version="1.1" xmlns="http://www.w3.org/2000/svg" xmlns:xlink="http://www.w3.org/1999/xlink" xmlns:sketch="http://www.bohemiancoding.com/sketch/ns">
    <!-- Generator: Sketch 3.5 (25232) - http://www.bohemiancoding.com/sketch -->
    <title>mail</title>
    <desc>Created with Sketch.</desc>
    <defs></defs>
    <g id="Page-1" stroke="none" stroke-width="1" fill="none" fill-rule="evenodd" sketch:type="MSPage">
        <g id="mail" sketch:type="MSLayerGroup">
            <g id="Page-1" sketch:type="MSShapeGroup">
                <g id="mail">
                    <g id="Page-1">
                        <g id="mail">
                            <path d="M146.687913,61.046415 L3.12988304,61.046415 C1.40735518,61.046415 0.00936156438,62.4459684 0.00936156438,64.1747376 L0.00936156438,153.11116 C0.00936156438,154.839929 1.40735518,156.241043 3.12988304,156.241043 L146.687913,156.241043 C148.412002,156.241043 149.809995,154.841489 149.809995,153.11116 L149.809995,64.1747376 C149.809995,62.4459684 148.412002,61.046415 146.687913,61.046415 L146.687913,61.046415 L146.687913,61.046415 L146.687913,61.046415 Z" id="Shape" fill="#D35400"></path>
                            <path d="M4.68078222,25.1385743 L4.68078222,153.086196 C4.68078222,154.829007 6.0787758,156.241043 7.80130368,156.241043 L141.985288,156.241043 C143.707815,156.241043 145.104248,154.829007 145.104248,153.087756 L145.104248,3.31988812 C145.104248,1.57707688 143.707815,0.166601173 141.985288,0.166601173 L29.651195,0.179083261 L4.68078222,25.1385743 L4.68078222,25.1385743 L4.68078222,25.1385743 L4.68078222,25.1385743 Z" id="Shape" fill="#ECF0F1"></path>
                            <path d="M59.2899081,112.553743 L145.099568,61.065138 L145.104248,71.9557578 L76.4964636,112.553743 L59.2899081,112.553743 L59.2899081,112.553743 L59.2899081,112.553743 L59.2899081,112.553743 Z" id="Shape" opacity="0.1" fill="#000000"></path>
                            <path d="M0,153.106479 C0,154.838368 1.39643336,156.241043 3.12052148,156.241043 L146.664509,156.241043 C148.387037,156.241043 149.785031,154.838368 149.785031,153.106479 L149.785031,65.7459204 L74.8925154,110.993482 L0,65.7459204 L0,153.106479 L0,153.106479 L0,153.106479 L0,153.106479 Z" id="Shape" fill="#F39C12"></path>
                            <path d="M4.68078222,25.1385743 L29.6465143,25.1541769 L29.6465143,0.214969258 L4.68078222,25.1385743 L4.68078222,25.1385743 L4.68078222,25.1385743 L4.68078222,25.1385743 Z" id="Shape" fill="#F1C40F"></path>
                            <path d="M0,65.7459204 L0.0811335582,150 L74.8925154,110.993482 L0,65.7459204 L0,65.7459204 L0,65.7459204 L0,65.7459204 Z" id="Shape" fill="#F1C40F"></path>
                            <path d="M149.785031,65.7459204 L74.8925154,110.993482 L149.785031,150 L149.785031,65.7459204 L149.785031,65.7459204 L149.785031,65.7459204 Z" id="Shape" fill="#E57E22"></path>
                            <path d="M149.785031,153.106479 L149.785031,150 L74.8925154,110.993482 L148.736536,155.432828 C149.374682,154.860212 149.785031,154.034834 149.785031,153.106479 L149.785031,153.106479 L149.785031,153.106479 L149.785031,153.106479 Z" id="Shape" opacity="0.3" fill="#000000"></path>
                            <path d="M-2.25516266e-15,153.106479 L-2.25516266e-15,150 L74.8925154,110.993482 L1.04849521,155.432828 C0.410348573,154.860212 -7.10542736e-15,154.034834 -7.10542736e-15,153.106479 L-2.25516266e-15,153.106479 L-2.25516266e-15,153.106479 L-2.25516266e-15,153.106479 Z" id="Shape" opacity="0.3" fill="#000000"></path>
                        </g>
                    </g>
                </g>
            </g>
        </g>
    </g>
</svg>